<svg height="70.690666" viewBox="0 0 60.679041 70.690665" width="60.679039" xmlns="http://www.w3.org/2000/svg" xmlns:xlink="http://www.w3.org/1999/xlink"><linearGradient id="a" gradientTransform="matrix(24.767208 24.767208 24.767208 -24.767208 748.33276 523.23004)" gradientUnits="userSpaceOnUse" spreadMethod="pad" x1="0" x2="1" y1="0" y2="0"><stop offset="0" stop-color="#00aeef"/><stop offset="1" stop-color="#00bdf2"/></linearGradient><linearGradient id="b"><stop offset="0" stop-color="#fdb727"/><stop offset="1" stop-color="#ffce22"/></linearGradient><linearGradient id="c" gradientTransform="matrix(5.7997003 5.7997003 5.7997003 -5.7997003 776.06378 549.01312)" gradientUnits="userSpaceOnUse" spreadMethod="pad" x1="0" x2="1" xlink:href="#b" y1="0" y2="0"/><linearGradient id="d" gradientTransform="matrix(3.3893712 3.3893712 3.3893712 -3.3893712 769.30481 564.45251)" gradientUnits="userSpaceOnUse" spreadMethod="pad" x1="0" x2="1" xlink:href="#b" y1="0" y2="0"/><g transform="matrix(1.3333333 0 0 -1.3333333 -988.71064 759.26531)"><path d="m758.319 561.892c-9.883-2.836-16.786-11.996-16.786-22.274 0-12.785 10.403-23.187 23.188-23.187 10.278 0 19.436 6.902 22.274 16.786.122.424.004.882-.309 1.194-.311.311-.767.428-1.193.309-1.898-.545-3.827-.82-5.732-.82-11.446 0-20.758 9.311-20.758 20.757 0 1.908.277 3.837.819 5.732.123.424.004.882-.308 1.194-.231.231-.539.356-.859.356-.111 0-.224-.016-.336-.047" fill="url(#a)"/><path d="m778.178 556.372c-.432-1.589-2.086-3.242-3.673-3.674-1.588-.431-1.588-1.138 0-1.57 1.587-.432 3.241-2.086 3.673-3.674s1.139-1.588 1.571 0 2.085 3.242 3.673 3.674 1.588 1.139 0 1.57c-1.588.432-3.241 2.085-3.673 3.674-.216.794-.501 1.191-.785 1.191-.285 0-.57-.397-.786-1.191" fill="url(#c)"/><path d="m770.54 568.752c-.253-.928-1.218-1.893-2.146-2.146-.928-.252-.928-.665 0-.918.928-.252 1.893-1.218 2.146-2.147.252-.928.666-.928.918 0 .253.929 1.219 1.895 2.147 2.147.928.253.928.666 0 .918-.928.253-1.894 1.218-2.147 2.146-.126.465-.292.697-.459.697-.166 0-.333-.232-.459-.697" fill="url(#d)"/></g></svg>