<svg height="53.68" viewBox="0 0 89.221865 53.679999" width="89.221863" xmlns="http://www.w3.org/2000/svg" xmlns:xlink="http://www.w3.org/1999/xlink"><linearGradient id="a" gradientTransform="matrix(18.332756 18.332756 18.332756 -18.332756 769.98651 395.73849)" gradientUnits="userSpaceOnUse" spreadMethod="pad" x1="0" x2="1" y1="0" y2="0"><stop offset="0" stop-color="#fdb727"/><stop offset="1" stop-color="#ffce22"/></linearGradient><clipPath id="b"><path d="m0 943.388h1828.656v-943.388h-1828.656z"/></clipPath><linearGradient id="c" gradientTransform="matrix(20.325035 20.325035 20.325035 -20.325035 769.57538 375.05075)" gradientUnits="userSpaceOnUse" spreadMethod="pad" x1="0" x2="1" y1="0" y2="0"><stop offset="0" stop-color="#d0e8f8"/><stop offset="1" stop-color="#e2eef9"/></linearGradient><g transform="matrix(1.3333333 0 0 -1.3333333 -974.43944 557.15732)"><path d="m766.19 404.905c0-7.16 5.803-12.963 12.962-12.963 7.16 0 12.964 5.803 12.964 12.963 0 7.159-5.804 12.963-12.964 12.963-7.159 0-12.962-5.804-12.962-12.963" fill="url(#a)"/><g clip-path="url(#b)"><path d="m0 0c5.889 0 10.664 4.774 10.664 10.664 0 5.889-4.775 10.663-10.664 10.663-.037 0-.073-.005-.109-.005-.949 8.504-8.158 15.116-16.915 15.116-6.916 0-12.864-4.125-15.529-10.048-.084.002-.167.006-.252.006-7.289 0-13.198-5.909-13.198-13.198s5.909-13.198 13.198-13.198" fill="#fff" transform="translate(776.8326 377.6085)"/></g><path d="m770.609 394.18c-.052.001-.105.004-.159.004-4.576 0-8.288-3.71-8.288-8.288s3.712-8.288 8.288-8.288h20.6c3.698 0 6.696 2.998 6.696 6.697 0 3.698-2.998 6.696-6.696 6.696-.023 0-.045-.003-.069-.004-.596 5.34-5.122 9.493-10.621 9.493-4.343 0-8.078-2.592-9.751-6.31" fill="url(#c)"/></g></svg>