<svg height="60.142666" viewBox="0 0 89.332644 60.142665" width="89.332642" xmlns="http://www.w3.org/2000/svg" xmlns:xlink="http://www.w3.org/1999/xlink"><linearGradient id="a" gradientTransform="matrix(15.601304 15.601304 15.601304 -15.601304 1076.5402 711.65576)" gradientUnits="userSpaceOnUse" spreadMethod="pad" x1="0" x2="1" y1="0" y2="0"><stop offset="0" stop-color="#00aeef"/><stop offset="1" stop-color="#00bdf2"/></linearGradient><linearGradient id="b" gradientTransform="matrix(56.666687 0 0 -56.666687 1033.924 709.15155)" gradientUnits="userSpaceOnUse" spreadMethod="pad" x1="0" x2="1" y1="0" y2="0"><stop offset="0" stop-color="#d0e8f8"/><stop offset="1" stop-color="#e2eef9"/></linearGradient><clipPath id="c"><path d="m0 943.388h1828.656v-943.388h-1828.656z"/></clipPath><linearGradient id="d"><stop offset="0" stop-color="#fdb727"/><stop offset="1" stop-color="#ffce22"/></linearGradient><linearGradient id="e" gradientTransform="matrix(3.6693649 3.6693649 3.6693649 -3.6693649 1094.0217 728.71637)" gradientUnits="userSpaceOnUse" spreadMethod="pad" x1="0" x2="1" xlink:href="#d" y1="0" y2="0"/><linearGradient id="f" gradientTransform="matrix(2.9717422 2.9717422 2.9717422 -2.9717422 1039.1809 725.54553)" gradientUnits="userSpaceOnUse" spreadMethod="pad" x1="0" x2="1" xlink:href="#d" y1="0" y2="0"/><g transform="matrix(1.3333333 0 0 -1.3333333 -1378.5653 981.38531)"><path d="m1082.831 736.01c-6.226-1.787-10.574-7.557-10.574-14.031 0-8.054 6.552-14.606 14.607-14.606 6.473 0 12.242 4.348 14.03 10.573.077.268 0 .555-.194.753-.196.196-.483.27-.752.194-1.196-.343-2.411-.517-3.61-.517-7.211 0-13.076 5.867-13.076 13.077 0 1.201.173 2.416.516 3.61.077.268 0 .556-.194.752-.146.145-.341.224-.542.224-.07 0-.141-.009-.211-.029" fill="url(#a)"/><path d="m1047.375 717.323c-.085 0-.168.006-.253.006-7.289 0-13.198-5.91-13.198-13.199s5.909-13.198 13.198-13.198h32.805c5.889 0 10.663 4.774 10.663 10.664 0 5.889-4.774 10.664-10.663 10.664-.038 0-.073-.005-.11-.005-.947 8.503-8.157 15.116-16.914 15.116-6.916 0-12.864-4.126-15.528-10.048" fill="url(#b)"/><g clip-path="url(#c)"><path d="m0 0c3.698 0 6.696 2.998 6.696 6.696 0 3.699-2.998 6.697-6.696 6.697-.023 0-.045-.004-.068-.004-.596 5.34-5.123 9.492-10.622 9.492-4.342 0-8.078-2.59-9.751-6.31-.053.001-.105.004-.158.004-4.577 0-8.288-3.71-8.288-8.287 0-4.578 3.711-8.288 8.288-8.288" fill="#fff" transform="translate(1094.1442 690.9323)"/></g><path d="m1095.359 733.371c-.273-1.004-1.319-2.05-2.323-2.323-1.005-.273-1.005-.72 0-.994 1.004-.274 2.05-1.319 2.323-2.324.274-1.004.721-1.004.995 0 .273 1.005 1.318 2.05 2.324 2.324 1.004.274 1.004.721 0 .994-1.006.273-2.051 1.319-2.324 2.323-.137.503-.317.754-.497.754-.181 0-.361-.251-.498-.754" fill="url(#e)"/><path d="m1040.264 729.316c-.221-.814-1.068-1.661-1.882-1.882-.813-.221-.813-.584 0-.805.814-.222 1.661-1.068 1.882-1.882s.584-.814.806 0c.221.814 1.067 1.66 1.881 1.882.814.221.814.584 0 .805s-1.66 1.068-1.881 1.882c-.111.407-.257.61-.403.61s-.292-.203-.403-.61" fill="url(#f)"/></g></svg>