<svg height="48.585331" viewBox="0 0 75.556002 48.58533" width="75.556" xmlns="http://www.w3.org/2000/svg" xmlns:xlink="http://www.w3.org/1999/xlink"><clipPath id="a"><path d="m0 943.388h1828.656v-943.388h-1828.656z"/></clipPath><g clip-path="url(#a)" transform="matrix(1.3333333 0 0 -1.3333333 -772.34838 753.38558)"><path d="m0 0c5.89 0 10.664 4.774 10.664 10.664 0 5.889-4.774 10.664-10.664 10.664-.037 0-.072-.005-.109-.006-.949 8.504-8.158 15.117-16.915 15.117-6.915 0-12.864-4.126-15.528-10.049-.084.002-.168.006-.252.006-7.29 0-13.199-5.909-13.199-13.198s5.909-13.198 13.199-13.198" fill="#fff" transform="translate(625.2643 528.6002)"/></g></svg>