<svg height="48.584667" viewBox="0 0 89.222003 48.584666" width="89.222" xmlns="http://www.w3.org/2000/svg" xmlns:xlink="http://www.w3.org/1999/xlink"><clipPath id="a"><path d="m0 943.388h1828.656v-943.388h-1828.656z"/></clipPath><linearGradient id="b" gradientTransform="matrix(20.325035 20.325035 20.325035 -20.325035 921.14337 525.74066)" gradientUnits="userSpaceOnUse" spreadMethod="pad" x1="0" x2="1" y1="0" y2="0"><stop offset="0" stop-color="#d0e8f8"/><stop offset="1" stop-color="#e2eef9"/></linearGradient><g transform="matrix(1.3333333 0 0 -1.3333333 -1176.53 752.98198)"><g clip-path="url(#a)"><path d="m0 0c5.889 0 10.664 4.774 10.664 10.664 0 5.889-4.775 10.664-10.664 10.664-.037 0-.072-.006-.109-.006-.949 8.504-8.158 15.116-16.915 15.116-6.915 0-12.864-4.125-15.528-10.048-.085.002-.168.006-.253.006-7.289 0-13.198-5.909-13.198-13.198s5.909-13.198 13.198-13.198" fill="#fff" transform="translate(928.4005 528.2985)"/></g><path d="m922.177 544.87c-.053.001-.105.003-.159.003-4.577 0-8.287-3.71-8.287-8.287s3.71-8.288 8.287-8.288h20.6c3.698 0 6.696 2.998 6.696 6.697 0 3.698-2.998 6.696-6.696 6.696-.023 0-.045-.004-.069-.004-.596 5.34-5.122 9.493-10.622 9.493-4.341 0-8.077-2.591-9.75-6.31" fill="url(#b)"/></g></svg>