<svg height="79.954529" viewBox="0 0 89.221864 79.954528" width="89.221863" xmlns="http://www.w3.org/2000/svg" xmlns:xlink="http://www.w3.org/1999/xlink"><clipPath id="a"><path d="m0 943.388h1828.656v-943.388h-1828.656z"/></clipPath><linearGradient id="b" gradientTransform="matrix(20.325035 20.325035 20.325035 -20.325035 314.87137 688.47217)" gradientUnits="userSpaceOnUse" spreadMethod="pad" x1="0" x2="1" y1="0" y2="0"><stop offset="0" stop-color="#d0e8f8"/><stop offset="1" stop-color="#e2eef9"/></linearGradient><linearGradient id="c"><stop offset="0" stop-color="#00aeef"/><stop offset="1" stop-color="#00bdf2"/></linearGradient><linearGradient id="d" gradientTransform="matrix(6.8876667 0 0 -6.8876667 283.76889 679.18317)" gradientUnits="userSpaceOnUse" spreadMethod="pad" x1="0" x2="1" xlink:href="#c" y1="0" y2="0"/><linearGradient id="e" gradientTransform="matrix(6.8876667 0 0 -6.8876667 299.88071 679.18317)" gradientUnits="userSpaceOnUse" spreadMethod="pad" x1="0" x2="1" xlink:href="#c" y1="0" y2="0"/><linearGradient id="f" gradientTransform="matrix(6.8876667 0 0 -6.8876667 315.99252 679.18317)" gradientUnits="userSpaceOnUse" spreadMethod="pad" x1="0" x2="1" xlink:href="#c" y1="0" y2="0"/><linearGradient id="g" gradientTransform="matrix(6.8876667 0 0 -6.8876667 288.76889 672.00311)" gradientUnits="userSpaceOnUse" spreadMethod="pad" x1="0" x2="1" xlink:href="#c" y1="0" y2="0"/><linearGradient id="h" gradientTransform="matrix(6.8876667 0 0 -6.8876667 305.3812 672.00311)" gradientUnits="userSpaceOnUse" spreadMethod="pad" x1="0" x2="1" xlink:href="#c" y1="0" y2="0"/><linearGradient id="i" gradientTransform="matrix(6.8876667 0 0 -6.8876667 321.99252 672.00311)" gradientUnits="userSpaceOnUse" spreadMethod="pad" x1="0" x2="1" xlink:href="#c" y1="0" y2="0"/><g transform="matrix(1.3333333 0 0 -1.3333333 -368.16746 969.95718)"><g clip-path="url(#a)"><path d="m0 0c5.889 0 10.664 4.774 10.664 10.664 0 5.889-4.775 10.664-10.664 10.664-.037 0-.072-.006-.109-.006-.949 8.504-8.158 15.116-16.915 15.116-6.915 0-12.864-4.125-15.528-10.048-.085.002-.168.006-.253.006-7.289 0-13.198-5.909-13.198-13.198s5.909-13.198 13.198-13.198" fill="#fff" transform="translate(322.1286 691.0299)"/></g><path d="m315.904 707.602c-.052 0-.104.003-.157.003-4.577 0-8.288-3.711-8.288-8.288 0-4.576 3.711-8.287 8.288-8.287h20.599c3.698 0 6.696 2.998 6.696 6.696s-2.998 6.697-6.696 6.697c-.023 0-.046-.004-.068-.004-.596 5.34-5.123 9.492-10.622 9.492-4.342 0-8.078-2.591-9.752-6.309" fill="url(#b)"/><path d="m286.924 682.682-2.888-4.999c-.551-.957-.224-2.18.733-2.732.316-.182.66-.269.998-.269.691 0 1.364.359 1.734 1.001l2.888 5c.551.956.224 2.179-.733 2.732-.316.182-.66.269-.999.269-.692 0-1.363-.36-1.733-1.002" fill="url(#d)"/><path d="m303.035 682.682-2.887-4.999c-.552-.957-.224-2.18.733-2.732.316-.182.659-.269.998-.269.691 0 1.363.359 1.734 1.001l2.887 5c.552.956.224 2.179-.732 2.732-.316.182-.66.269-1 .269-.691 0-1.362-.36-1.733-1.002" fill="url(#e)"/><path d="m319.147 682.682-2.887-4.999c-.552-.957-.224-2.18.733-2.732.316-.182.659-.269.998-.269.691 0 1.363.359 1.734 1.001l2.887 5c.552.956.224 2.179-.732 2.732-.316.182-.661.269-1 .269-.691 0-1.362-.36-1.733-1.002" fill="url(#f)"/><path d="m291.923 675.503-2.886-5c-.552-.956-.225-2.18.732-2.732.315-.182.659-.269.998-.269.692 0 1.363.359 1.735 1.001l2.886 5c.552.957.225 2.18-.733 2.732-.315.182-.659.269-.999.269-.691 0-1.362-.359-1.733-1.001" fill="url(#g)"/><path d="m308.536 675.503-2.887-5c-.552-.956-.224-2.18.733-2.732.315-.182.658-.269.998-.269.691 0 1.363.359 1.734 1.001l2.886 5c.552.957.225 2.18-.731 2.732-.317.182-.661.269-1.001.269-.691 0-1.361-.359-1.732-1.001" fill="url(#h)"/><path d="m325.147 675.503-2.887-5c-.551-.956-.224-2.18.733-2.732.315-.182.659-.269.998-.269.691 0 1.363.359 1.734 1.001l2.887 5c.551.957.225 2.18-.732 2.732-.316.182-.661.269-1 .269-.691 0-1.362-.359-1.733-1.001" fill="url(#i)"/></g></svg>