<svg height="78.287994" viewBox="0 0 89.222003 78.287993" width="89.222" xmlns="http://www.w3.org/2000/svg" xmlns:xlink="http://www.w3.org/1999/xlink"><linearGradient id="a" gradientTransform="matrix(18.332756 18.332756 18.332756 -18.332756 921.5545 248.5513)" gradientUnits="userSpaceOnUse" spreadMethod="pad" x1="0" x2="1" y1="0" y2="0"><stop offset="0" stop-color="#fdb727"/><stop offset="1" stop-color="#ffce22"/></linearGradient><clipPath id="b"><path d="m0 943.388h1828.656v-943.388h-1828.656z"/></clipPath><linearGradient id="c" gradientTransform="matrix(20.325035 20.325035 20.325035 -20.325035 921.14337 225.75322)" gradientUnits="userSpaceOnUse" spreadMethod="pad" x1="0" x2="1" y1="0" y2="0"><stop offset="0" stop-color="#d0e8f8"/><stop offset="1" stop-color="#e2eef9"/></linearGradient><linearGradient id="d"><stop offset="0" stop-color="#00aeef"/><stop offset="1" stop-color="#00bdf2"/></linearGradient><linearGradient id="e" gradientTransform="matrix(6.8876667 0 0 -6.8876667 892.75293 216.46463)" gradientUnits="userSpaceOnUse" spreadMethod="pad" x1="0" x2="1" xlink:href="#d" y1="0" y2="0"/><linearGradient id="f" gradientTransform="matrix(6.8876667 0 0 -6.8876667 906.36523 216.46463)" gradientUnits="userSpaceOnUse" spreadMethod="pad" x1="0" x2="1" xlink:href="#d" y1="0" y2="0"/><linearGradient id="g" gradientTransform="matrix(6.8876667 0 0 -6.8876667 920.97656 216.46463)" gradientUnits="userSpaceOnUse" spreadMethod="pad" x1="0" x2="1" xlink:href="#d" y1="0" y2="0"/><g transform="matrix(1.3333333 0 0 -1.3333333 -1176.53 360.90666)"><path d="m917.757 257.718c0-7.159 5.805-12.964 12.964-12.964s12.963 5.805 12.963 12.964-5.804 12.962-12.963 12.962-12.964-5.803-12.964-12.962" fill="url(#a)"/><g clip-path="url(#b)"><path d="m0 0c5.889 0 10.664 4.774 10.664 10.664s-4.775 10.664-10.664 10.664c-.037 0-.072-.005-.109-.006-.949 8.504-8.158 15.117-16.915 15.117-6.915 0-12.864-4.126-15.528-10.048-.085.001-.168.005-.253.005-7.289 0-13.198-5.909-13.198-13.198s5.909-13.198 13.198-13.198" fill="#fff" transform="translate(928.4005 228.3107)"/></g><path d="m922.177 244.882c-.053.001-.105.003-.159.003-4.577 0-8.287-3.709-8.287-8.287 0-4.576 3.71-8.287 8.287-8.287h20.6c3.698 0 6.696 2.998 6.696 6.696s-2.998 6.696-6.696 6.696c-.023 0-.045-.003-.069-.003-.596 5.34-5.122 9.493-10.622 9.493-4.341 0-8.077-2.591-9.75-6.311" fill="url(#c)"/><path d="m895.908 219.964-2.887-5c-.551-.957-.225-2.18.732-2.732.316-.182.66-.268.998-.268.692 0 1.364.359 1.734 1l2.888 5c.551.957.225 2.18-.733 2.732-.316.182-.66.269-.999.269-.692 0-1.363-.359-1.733-1.001" fill="url(#e)"/><path d="m909.52 219.964-2.887-5c-.552-.957-.224-2.18.733-2.732.316-.182.659-.268.998-.268.691 0 1.363.359 1.734 1l2.887 5c.552.957.224 2.18-.732 2.732-.316.182-.661.269-1 .269-.691 0-1.362-.359-1.733-1.001" fill="url(#f)"/><path d="m924.132 219.964-2.887-5c-.552-.957-.225-2.18.732-2.732.316-.182.659-.268.998-.268.691 0 1.364.359 1.734 1l2.888 5c.551.957.224 2.18-.733 2.732-.316.182-.661.269-1 .269-.691 0-1.362-.359-1.732-1.001" fill="url(#g)"/></g></svg>