<svg height="80.956001" viewBox="0 0 89.332644 80.956" width="89.332642" xmlns="http://www.w3.org/2000/svg" xmlns:xlink="http://www.w3.org/1999/xlink"><linearGradient id="a"><stop offset="0" stop-color="#00aeef"/><stop offset="1" stop-color="#00bdf2"/></linearGradient><linearGradient id="b" gradientTransform="matrix(15.601304 15.601304 15.601304 -15.601304 1531.2441 248.29829)" gradientUnits="userSpaceOnUse" spreadMethod="pad" x1="0" x2="1" xlink:href="#a" y1="0" y2="0"/><linearGradient id="c" gradientTransform="matrix(32.367748 32.367748 32.367748 -32.367748 1500.4324 224.23839)" gradientUnits="userSpaceOnUse" spreadMethod="pad" x1="0" x2="1" y1="0" y2="0"><stop offset="0" stop-color="#d0e8f8"/><stop offset="1" stop-color="#e2eef9"/></linearGradient><clipPath id="d"><path d="m0 943.388h1828.656v-943.388h-1828.656z"/></clipPath><linearGradient id="e" gradientTransform="matrix(6.8876667 0 0 -6.8876667 1498.7712 216.46463)" gradientUnits="userSpaceOnUse" spreadMethod="pad" x1="0" x2="1" xlink:href="#a" y1="0" y2="0"/><linearGradient id="f" gradientTransform="matrix(6.8876667 0 0 -6.8876667 1512.3835 216.46463)" gradientUnits="userSpaceOnUse" spreadMethod="pad" x1="0" x2="1" xlink:href="#a" y1="0" y2="0"/><linearGradient id="g" gradientTransform="matrix(6.8876667 0 0 -6.8876667 1526.9949 216.46463)" gradientUnits="userSpaceOnUse" spreadMethod="pad" x1="0" x2="1" xlink:href="#a" y1="0" y2="0"/><g transform="matrix(1.3333333 0 0 -1.3333333 -1984.8373 363.57466)"><path d="m1537.535 272.652c-6.226-1.787-10.574-7.556-10.574-14.03 0-8.055 6.553-14.606 14.607-14.606 6.473 0 12.242 4.347 14.03 10.573.077.268 0 .556-.194.752-.197.196-.484.27-.752.195-1.195-.344-2.41-.517-3.61-.517-7.211 0-13.077 5.866-13.077 13.076 0 1.202.175 2.417.517 3.611.077.267 0 .555-.194.751-.146.146-.34.224-.541.224-.071 0-.142-.009-.212-.029" fill="url(#b)"/><path d="m1502.078 254.701c-.084.003-.167.007-.252.007-7.289 0-13.198-5.909-13.198-13.198s5.909-13.198 13.198-13.198h32.804c5.89 0 10.665 4.775 10.665 10.662 0 5.891-4.775 10.664-10.665 10.664-.036 0-.072-.004-.108-.004-.949 8.504-8.158 15.116-16.915 15.116-6.916 0-12.864-4.126-15.529-10.049" fill="url(#c)"/><g clip-path="url(#d)"><path d="m0 0c3.698 0 6.696 2.998 6.696 6.696 0 3.699-2.998 6.697-6.696 6.697-.023 0-.045-.004-.068-.004-.596 5.34-5.123 9.492-10.622 9.492-4.343 0-8.078-2.591-9.751-6.31-.053.001-.105.004-.158.004-4.577 0-8.288-3.711-8.288-8.288s3.711-8.287 8.288-8.287" fill="#fff" transform="translate(1548.8483 228.3116)"/></g><path d="m1501.926 219.964-2.887-5c-.552-.956-.225-2.18.733-2.731.315-.183.658-.269.998-.269.691 0 1.363.359 1.734 1l2.886 5c.552.957.225 2.18-.731 2.732-.316.183-.661.27-1 .27-.691 0-1.362-.36-1.733-1.002" fill="url(#e)"/><path d="m1515.538 219.964-2.886-5c-.552-.956-.225-2.18.732-2.731.315-.183.659-.269.998-.269.691 0 1.363.359 1.735 1l2.886 5c.552.957.225 2.18-.733 2.732-.316.183-.66.27-.999.27-.692 0-1.363-.36-1.733-1.002" fill="url(#f)"/><path d="m1530.149 219.964-2.886-5c-.552-.956-.225-2.18.732-2.731.316-.183.659-.269.998-.269.692 0 1.363.359 1.734 1l2.887 5c.552.957.225 2.18-.732 2.732-.316.183-.66.27-1 .27-.691 0-1.362-.36-1.733-1.002" fill="url(#g)"/></g></svg>