<svg height="84.345192" viewBox="0 0 89.221865 84.345191" width="89.221863" xmlns="http://www.w3.org/2000/svg" xmlns:xlink="http://www.w3.org/1999/xlink"><linearGradient id="a"><stop offset="0" stop-color="#fdb727"/><stop offset="1" stop-color="#ffce22"/></linearGradient><linearGradient id="b" gradientTransform="matrix(18.332756 18.332756 18.332756 -18.332756 316.48221 547.01764)" gradientUnits="userSpaceOnUse" spreadMethod="pad" x1="0" x2="1" xlink:href="#a" y1="0" y2="0"/><linearGradient id="c" gradientTransform="matrix(19.207622 19.207622 19.207622 -19.207622 291.91434 510.21103)" gradientUnits="userSpaceOnUse" spreadMethod="pad" x1="0" x2="1" xlink:href="#a" y1="0" y2="0"/><clipPath id="d"><path d="m0 943.388h1828.656v-943.388h-1828.656z"/></clipPath><linearGradient id="e" gradientTransform="matrix(20.325035 20.325035 20.325035 -20.325035 314.87137 525.93689)" gradientUnits="userSpaceOnUse" spreadMethod="pad" x1="0" x2="1" y1="0" y2="0"><stop offset="0" stop-color="#d0e8f8"/><stop offset="1" stop-color="#e2eef9"/></linearGradient><g transform="matrix(1.3333333 0 0 -1.3333333 -368.16746 758.86265)"><path d="m312.685 556.184c0-7.16 5.804-12.963 12.964-12.963 7.158 0 12.963 5.803 12.963 12.963 0 7.159-5.805 12.963-12.963 12.963-7.16 0-12.964-5.804-12.964-12.963" fill="url(#b)"/><path d="m299.226 529.637-5.267-9.121c-.825-1.429-.154-2.499 1.492-2.378l4.302.316c1.645.121 2.347-.966 1.56-2.416l-4.786-8.806c-.787-1.45-.389-1.779.885-.73l17.302 14.229c1.274 1.048.968 1.837-.679 1.752l-6.611-.338c-1.648-.085-2.321 1.015-1.497 2.444l2.91 5.04c.825 1.429.15 2.599-1.5 2.6l-3.611.004c-1.651.002-3.676-1.166-4.5-2.596" fill="url(#c)"/><g clip-path="url(#d)"><path d="m0 0c5.889 0 10.664 4.774 10.664 10.664s-4.775 10.664-10.664 10.664c-.037 0-.072-.005-.109-.006-.949 8.504-8.158 15.117-16.915 15.117-6.915 0-12.864-4.126-15.528-10.048-.085.001-.168.006-.253.006-7.289 0-13.198-5.909-13.198-13.198 0-7.29 5.909-13.199 13.198-13.199" fill="#fff" transform="translate(322.1286 528.4943)"/></g><path d="m315.904 545.066c-.052.001-.104.004-.157.004-4.577 0-8.288-3.71-8.288-8.288 0-4.577 3.711-8.288 8.288-8.288h20.599c3.698 0 6.696 2.998 6.696 6.696s-2.998 6.696-6.696 6.696c-.023 0-.046-.002-.068-.002-.596 5.339-5.123 9.492-10.622 9.492-4.342 0-8.078-2.591-9.752-6.31" fill="url(#e)"/></g></svg>