<svg height="90.791862" viewBox="0 0 89.332644 90.791861" width="89.332642" xmlns="http://www.w3.org/2000/svg" xmlns:xlink="http://www.w3.org/1999/xlink"><linearGradient id="a" gradientTransform="matrix(19.207622 19.207622 19.207622 -19.207622 1201.2806 672.76135)" gradientUnits="userSpaceOnUse" spreadMethod="pad" x1="0" x2="1" y1="0" y2="0"><stop offset="0" stop-color="#fdb727"/><stop offset="1" stop-color="#ffce22"/></linearGradient><linearGradient id="b" gradientTransform="matrix(15.601304 15.601304 15.601304 -15.601304 1228.1082 712.14948)" gradientUnits="userSpaceOnUse" spreadMethod="pad" x1="0" x2="1" y1="0" y2="0"><stop offset="0" stop-color="#00aeef"/><stop offset="1" stop-color="#00bdf2"/></linearGradient><linearGradient id="c" gradientTransform="matrix(32.367748 32.367748 32.367748 -32.367748 1197.2963 686.9718)" gradientUnits="userSpaceOnUse" spreadMethod="pad" x1="0" x2="1" y1="0" y2="0"><stop offset="0" stop-color="#d0e8f8"/><stop offset="1" stop-color="#e2eef9"/></linearGradient><clipPath id="d"><path d="m0 943.388h1828.656v-943.388h-1828.656z"/></clipPath><g transform="matrix(1.3333333 0 0 -1.3333333 -1580.656 982.04264)"><path d="m1208.592 692.188-5.267-9.122c-.825-1.428-.154-2.499 1.492-2.378l4.302.317c1.646.12 2.348-.967 1.56-2.417l-4.785-8.806c-.788-1.45-.39-1.779.884-.73l17.302 14.229c1.274 1.048.968 1.837-.679 1.752l-6.612-.338c-1.647-.085-2.32 1.016-1.496 2.445l2.91 5.039c.825 1.429.15 2.599-1.5 2.601l-3.611.003s0 0-.01 0c-1.648 0-3.671-1.167-4.494-2.595" fill="url(#a)"/><path d="m1234.399 736.503c-6.226-1.786-10.574-7.556-10.574-14.03 0-8.054 6.552-14.607 14.607-14.607 6.473 0 12.243 4.348 14.03 10.574.077.268 0 .556-.194.753-.197.195-.484.269-.751.194-1.197-.343-2.412-.517-3.611-.517-7.211 0-13.077 5.866-13.077 13.076 0 1.202.174 2.417.516 3.61.078.269 0 .556-.193.753-.146.145-.34.223-.541.223-.071 0-.142-.009-.212-.029" fill="url(#b)"/><path d="m1198.942 717.435c-.084.002-.167.006-.252.006-7.289 0-13.198-5.909-13.198-13.197 0-7.29 5.909-13.199 13.198-13.199h32.804c5.891 0 10.664 4.774 10.664 10.663 0 5.89-4.773 10.664-10.664 10.664-.036 0-.072-.005-.109-.005-.948 8.503-8.157 15.116-16.914 15.116-6.916 0-12.864-4.125-15.529-10.048" fill="url(#c)"/><g clip-path="url(#d)"><path d="m0 0c3.698 0 6.696 2.998 6.696 6.696 0 3.699-2.998 6.696-6.696 6.696-.023 0-.045-.003-.069-.003-.596 5.34-5.122 9.492-10.621 9.492-4.343 0-8.078-2.59-9.751-6.31-.053.001-.105.004-.159.004-4.577 0-8.287-3.71-8.287-8.287 0-4.578 3.71-8.288 8.287-8.288" fill="#fff" transform="translate(1245.7125 691.045)"/></g></g></svg>