<svg height="92.239998" viewBox="0 0 89.221866 92.239998" width="89.221863" xmlns="http://www.w3.org/2000/svg" xmlns:xlink="http://www.w3.org/1999/xlink"><linearGradient id="a"><stop offset="0" stop-color="#d0e8f8"/><stop offset="1" stop-color="#e2eef9"/></linearGradient><linearGradient id="b" gradientTransform="matrix(4 0 0 -4 286.68936 368.24945)" gradientUnits="userSpaceOnUse" spreadMethod="pad" x1="0" x2="1" xlink:href="#a" y1="0" y2="0"/><linearGradient id="c" gradientTransform="matrix(4 0 0 -4 296.68936 368.24945)" gradientUnits="userSpaceOnUse" spreadMethod="pad" x1="0" x2="1" xlink:href="#a" y1="0" y2="0"/><linearGradient id="d" gradientTransform="matrix(4 0 0 -4 306.68936 368.24945)" gradientUnits="userSpaceOnUse" spreadMethod="pad" x1="0" x2="1" xlink:href="#a" y1="0" y2="0"/><linearGradient id="e" gradientTransform="matrix(4 0 0 -4 316.68936 368.24945)" gradientUnits="userSpaceOnUse" spreadMethod="pad" x1="0" x2="1" xlink:href="#a" y1="0" y2="0"/><linearGradient id="f" gradientTransform="matrix(4 0 0 -4 286.68936 351.96674)" gradientUnits="userSpaceOnUse" spreadMethod="pad" x1="0" x2="1" xlink:href="#a" y1="0" y2="0"/><linearGradient id="g" gradientTransform="matrix(4 0 0 -4 296.68936 351.96674)" gradientUnits="userSpaceOnUse" spreadMethod="pad" x1="0" x2="1" xlink:href="#a" y1="0" y2="0"/><linearGradient id="h" gradientTransform="matrix(4 0 0 -4 306.68936 351.96674)" gradientUnits="userSpaceOnUse" spreadMethod="pad" x1="0" x2="1" xlink:href="#a" y1="0" y2="0"/><linearGradient id="i" gradientTransform="matrix(4 0 0 -4 316.68936 351.96674)" gradientUnits="userSpaceOnUse" spreadMethod="pad" x1="0" x2="1" xlink:href="#a" y1="0" y2="0"/><linearGradient id="j" gradientTransform="matrix(4 0 0 -4 281.68936 359.96674)" gradientUnits="userSpaceOnUse" spreadMethod="pad" x1="0" x2="1" xlink:href="#a" y1="0" y2="0"/><linearGradient id="k" gradientTransform="matrix(4 0 0 -4 291.68936 359.96674)" gradientUnits="userSpaceOnUse" spreadMethod="pad" x1="0" x2="1" xlink:href="#a" y1="0" y2="0"/><linearGradient id="l" gradientTransform="matrix(4 0 0 -4 301.68936 359.96674)" gradientUnits="userSpaceOnUse" spreadMethod="pad" x1="0" x2="1" xlink:href="#a" y1="0" y2="0"/><linearGradient id="m" gradientTransform="matrix(4 0 0 -4 311.68936 359.96674)" gradientUnits="userSpaceOnUse" spreadMethod="pad" x1="0" x2="1" xlink:href="#a" y1="0" y2="0"/><linearGradient id="n" gradientTransform="matrix(18.332756 18.332756 18.332756 -18.332756 316.48221 547.01764)" gradientUnits="userSpaceOnUse" spreadMethod="pad" x1="0" x2="1" y1="0" y2="0"><stop offset="0" stop-color="#fdb727"/><stop offset="1" stop-color="#ffce22"/></linearGradient><clipPath id="o"><path d="m0 943.388h1828.656v-943.388h-1828.656z"/></clipPath><linearGradient id="p" gradientTransform="matrix(20.325035 20.325035 20.325035 -20.325035 314.87137 525.93689)" gradientUnits="userSpaceOnUse" spreadMethod="pad" x1="0" x2="1" xlink:href="#a" y1="0" y2="0"/><g transform="matrix(1.3333333 0 0 -1.3333333 -368.16746 558.86265)"><path d="m286.69 368.249c0-1.105.894-2 1.999-2s2 .895 2 2-.895 2-2 2-1.999-.895-1.999-2" fill="url(#b)"/><path d="m296.689 368.249c0-1.105.896-2 2-2 1.105 0 2.001.895 2.001 2s-.896 2-2.001 2c-1.104 0-2-.895-2-2" fill="url(#c)"/><path d="m306.689 368.249c0-1.105.896-2 2-2 1.105 0 2.001.895 2.001 2s-.896 2-2.001 2c-1.104 0-2-.895-2-2" fill="url(#d)"/><path d="m316.689 368.249c0-1.105.896-2 2.001-2 1.104 0 2 .895 2 2s-.896 2-2 2c-1.105 0-2.001-.895-2.001-2" fill="url(#e)"/><path d="m286.69 351.967c0-1.105.894-2 1.999-2s2 .895 2 2-.895 2-2 2-1.999-.895-1.999-2" fill="url(#f)"/><path d="m296.689 351.967c0-1.105.896-2 2-2 1.105 0 2.001.895 2.001 2s-.896 2-2.001 2c-1.104 0-2-.895-2-2" fill="url(#g)"/><path d="m306.689 351.967c0-1.105.896-2 2-2 1.105 0 2.001.895 2.001 2s-.896 2-2.001 2c-1.104 0-2-.895-2-2" fill="url(#h)"/><path d="m316.689 351.967c0-1.105.896-2 2.001-2 1.104 0 2 .895 2 2s-.896 2-2 2c-1.105 0-2.001-.895-2.001-2" fill="url(#i)"/><path d="m281.689 359.967c0-1.105.896-2 2.001-2 1.104 0 2 .895 2 2 0 1.104-.896 1.999-2 1.999-1.105 0-2.001-.895-2.001-1.999" fill="url(#j)"/><path d="m291.69 359.967c0-1.105.895-2 2-2 1.104 0 2 .895 2 2 0 1.104-.896 1.999-2 1.999-1.105 0-2-.895-2-1.999" fill="url(#k)"/><path d="m301.69 359.967c0-1.105.895-2 2-2 1.104 0 1.999.895 1.999 2 0 1.104-.895 1.999-1.999 1.999-1.105 0-2-.895-2-1.999" fill="url(#l)"/><path d="m311.69 359.967c0-1.105.894-2 2-2 1.104 0 1.999.895 1.999 2 0 1.104-.895 1.999-1.999 1.999-1.106 0-2-.895-2-1.999" fill="url(#m)"/><path d="m312.685 556.184c0-7.16 5.804-12.963 12.964-12.963 7.158 0 12.963 5.803 12.963 12.963 0 7.159-5.805 12.963-12.963 12.963-7.16 0-12.964-5.804-12.964-12.963" fill="url(#n)" transform="translate(0 -150)"/><g clip-path="url(#o)" transform="translate(0 -150)"><path d="m0 0c5.889 0 10.664 4.774 10.664 10.664s-4.775 10.664-10.664 10.664c-.037 0-.072-.005-.109-.006-.949 8.504-8.158 15.117-16.915 15.117-6.915 0-12.864-4.126-15.528-10.048-.085.001-.168.006-.253.006-7.289 0-13.198-5.909-13.198-13.198 0-7.29 5.909-13.199 13.198-13.199" fill="#fff" transform="translate(322.1286 528.4943)"/></g><path d="m315.904 545.066c-.052.001-.104.004-.157.004-4.577 0-8.288-3.71-8.288-8.288 0-4.577 3.711-8.288 8.288-8.288h20.599c3.698 0 6.696 2.998 6.696 6.696s-2.998 6.696-6.696 6.696c-.023 0-.046-.002-.068-.002-.596 5.339-5.123 9.492-10.622 9.492-4.342 0-8.078-2.591-9.752-6.31" fill="url(#p)" transform="translate(0 -150)"/></g></svg>