<svg height="98.057327" viewBox="0 0 90.745807 98.057326" width="90.745804" xmlns="http://www.w3.org/2000/svg" xmlns:xlink="http://www.w3.org/1999/xlink"><linearGradient id="a" gradientTransform="matrix(15.601304 15.601304 15.601304 -15.601304 319.23001 399.12653)" gradientUnits="userSpaceOnUse" spreadMethod="pad" x1="0" x2="1" y1="0" y2="0"><stop offset="0" stop-color="#00aeef"/><stop offset="1" stop-color="#00bdf2"/></linearGradient><linearGradient id="b"><stop offset="0" stop-color="#d0e8f8"/><stop offset="1" stop-color="#e2eef9"/></linearGradient><linearGradient id="c" gradientTransform="matrix(56.666687 0 0 -56.666687 275.55405 396.75192)" gradientUnits="userSpaceOnUse" spreadMethod="pad" x1="0" x2="1" xlink:href="#b" y1="0" y2="0"/><clipPath id="d"><path d="m0 943.388h1828.656v-943.388h-1828.656z"/></clipPath><linearGradient id="e" gradientTransform="matrix(4 0 0 -4 286.68936 368.24945)" gradientUnits="userSpaceOnUse" spreadMethod="pad" x1="0" x2="1" xlink:href="#b" y1="0" y2="0"/><linearGradient id="f" gradientTransform="matrix(4 0 0 -4 296.68936 368.24945)" gradientUnits="userSpaceOnUse" spreadMethod="pad" x1="0" x2="1" xlink:href="#b" y1="0" y2="0"/><linearGradient id="g" gradientTransform="matrix(4 0 0 -4 306.68936 368.24945)" gradientUnits="userSpaceOnUse" spreadMethod="pad" x1="0" x2="1" xlink:href="#b" y1="0" y2="0"/><linearGradient id="h" gradientTransform="matrix(4 0 0 -4 316.68936 368.24945)" gradientUnits="userSpaceOnUse" spreadMethod="pad" x1="0" x2="1" xlink:href="#b" y1="0" y2="0"/><linearGradient id="i" gradientTransform="matrix(4 0 0 -4 286.68936 351.96674)" gradientUnits="userSpaceOnUse" spreadMethod="pad" x1="0" x2="1" xlink:href="#b" y1="0" y2="0"/><linearGradient id="j" gradientTransform="matrix(4 0 0 -4 296.68936 351.96674)" gradientUnits="userSpaceOnUse" spreadMethod="pad" x1="0" x2="1" xlink:href="#b" y1="0" y2="0"/><linearGradient id="k" gradientTransform="matrix(4 0 0 -4 306.68936 351.96674)" gradientUnits="userSpaceOnUse" spreadMethod="pad" x1="0" x2="1" xlink:href="#b" y1="0" y2="0"/><linearGradient id="l" gradientTransform="matrix(4 0 0 -4 316.68936 351.96674)" gradientUnits="userSpaceOnUse" spreadMethod="pad" x1="0" x2="1" xlink:href="#b" y1="0" y2="0"/><linearGradient id="m" gradientTransform="matrix(4 0 0 -4 281.68936 359.96674)" gradientUnits="userSpaceOnUse" spreadMethod="pad" x1="0" x2="1" xlink:href="#b" y1="0" y2="0"/><linearGradient id="n" gradientTransform="matrix(4 0 0 -4 291.68936 359.96674)" gradientUnits="userSpaceOnUse" spreadMethod="pad" x1="0" x2="1" xlink:href="#b" y1="0" y2="0"/><linearGradient id="o" gradientTransform="matrix(4 0 0 -4 301.68936 359.96674)" gradientUnits="userSpaceOnUse" spreadMethod="pad" x1="0" x2="1" xlink:href="#b" y1="0" y2="0"/><linearGradient id="p" gradientTransform="matrix(4 0 0 -4 311.68936 359.96674)" gradientUnits="userSpaceOnUse" spreadMethod="pad" x1="0" x2="1" xlink:href="#b" y1="0" y2="0"/><g transform="matrix(1.3333333 0 0 -1.3333333 -367.40532 564.67999)"><path d="m325.521 423.481c-6.226-1.788-10.574-7.557-10.574-14.031 0-8.054 6.553-14.606 14.606-14.606 6.475 0 12.244 4.347 14.031 10.573.076.268.002.555-.194.752-.197.196-.484.27-.752.194-1.195-.342-2.41-.516-3.611-.516-7.21 0-13.076 5.866-13.076 13.076 0 1.202.175 2.417.517 3.611.076.267.002.555-.195.752-.145.146-.339.224-.54.224-.071 0-.142-.01-.212-.029" fill="url(#a)"/><path d="m289.004 404.923c-.083.001-.167.006-.252.006-7.289 0-13.198-5.909-13.198-13.199 0-7.289 5.909-13.198 13.198-13.198h32.804c5.89 0 10.665 4.774 10.665 10.664s-4.775 10.664-10.665 10.664c-.035 0-.072-.005-.108-.005-.949 8.504-8.158 15.116-16.915 15.116-6.916 0-12.864-4.126-15.529-10.048" fill="url(#c)"/><g clip-path="url(#d)"><path d="m0 0c3.698 0 6.696 2.998 6.696 6.696 0 3.699-2.998 6.697-6.696 6.697-.023 0-.045-.003-.068-.003-.596 5.339-5.123 9.492-10.622 9.492-4.343 0-8.078-2.591-9.751-6.311-.053.001-.105.005-.159.005-4.577 0-8.287-3.711-8.287-8.288s3.71-8.288 8.287-8.288" fill="#fff" transform="translate(335.7746 378.5323)"/></g><path d="m286.69 368.249c0-1.105.894-2 1.999-2s2 .895 2 2-.895 2-2 2-1.999-.895-1.999-2" fill="url(#e)"/><path d="m296.689 368.249c0-1.105.896-2 2-2 1.105 0 2.001.895 2.001 2s-.896 2-2.001 2c-1.104 0-2-.895-2-2" fill="url(#f)"/><path d="m306.689 368.249c0-1.105.896-2 2-2 1.105 0 2.001.895 2.001 2s-.896 2-2.001 2c-1.104 0-2-.895-2-2" fill="url(#g)"/><path d="m316.689 368.249c0-1.105.896-2 2.001-2 1.104 0 2 .895 2 2s-.896 2-2 2c-1.105 0-2.001-.895-2.001-2" fill="url(#h)"/><path d="m286.69 351.967c0-1.105.894-2 1.999-2s2 .895 2 2-.895 2-2 2-1.999-.895-1.999-2" fill="url(#i)"/><path d="m296.689 351.967c0-1.105.896-2 2-2 1.105 0 2.001.895 2.001 2s-.896 2-2.001 2c-1.104 0-2-.895-2-2" fill="url(#j)"/><path d="m306.689 351.967c0-1.105.896-2 2-2 1.105 0 2.001.895 2.001 2s-.896 2-2.001 2c-1.104 0-2-.895-2-2" fill="url(#k)"/><path d="m316.689 351.967c0-1.105.896-2 2.001-2 1.104 0 2 .895 2 2s-.896 2-2 2c-1.105 0-2.001-.895-2.001-2" fill="url(#l)"/><path d="m281.689 359.967c0-1.105.896-2 2.001-2 1.104 0 2 .895 2 2 0 1.104-.896 1.999-2 1.999-1.105 0-2.001-.895-2.001-1.999" fill="url(#m)"/><path d="m291.69 359.967c0-1.105.895-2 2-2 1.104 0 2 .895 2 2 0 1.104-.896 1.999-2 1.999-1.105 0-2-.895-2-1.999" fill="url(#n)"/><path d="m301.69 359.967c0-1.105.895-2 2-2 1.104 0 1.999.895 1.999 2 0 1.104-.895 1.999-1.999 1.999-1.105 0-2-.895-2-1.999" fill="url(#o)"/><path d="m311.69 359.967c0-1.105.894-2 2-2 1.104 0 1.999.895 1.999 2 0 1.104-.895 1.999-1.999 1.999-1.106 0-2-.895-2-1.999" fill="url(#p)"/></g></svg>