<svg height="56.666664" viewBox="0 0 57.333334 56.666663" width="57.333332" xmlns="http://www.w3.org/2000/svg" xmlns:xlink="http://www.w3.org/1999/xlink"><linearGradient id="a"><stop offset="0" stop-color="#d0e8f8"/><stop offset="1" stop-color="#e2eef9"/></linearGradient><linearGradient id="b" gradientTransform="matrix(43 0 0 -43 591.21991 409.15497)" gradientUnits="userSpaceOnUse" spreadMethod="pad" x1="0" x2="1" xlink:href="#a" y1="0" y2="0"/><linearGradient id="c" gradientTransform="matrix(25 0 0 -25 599.21991 399.52997)" gradientUnits="userSpaceOnUse" spreadMethod="pad" x1="0" x2="1" xlink:href="#a" y1="0" y2="0"/><linearGradient id="d" gradientTransform="matrix(22 0 0 -22 605.21991 389.90497)" gradientUnits="userSpaceOnUse" spreadMethod="pad" x1="0" x2="1" xlink:href="#a" y1="0" y2="0"/><linearGradient id="e" gradientTransform="matrix(16 0 0 -16 605.21991 380.27997)" gradientUnits="userSpaceOnUse" spreadMethod="pad" x1="0" x2="1" xlink:href="#a" y1="0" y2="0"/><linearGradient id="f" gradientTransform="matrix(5 0 0 -5 606.71991 370.65497)" gradientUnits="userSpaceOnUse" spreadMethod="pad" x1="0" x2="1" xlink:href="#a" y1="0" y2="0"/><g transform="matrix(1.3333333 0 0 -1.3333333 -788.29331 548.20665)"><path d="m593.22 411.155c-1.105 0-2-.895-2-2s.895-2 2-2h38.999c1.106 0 2.001.895 2.001 2s-.895 2-2.001 2z" fill="url(#b)"/><path d="m601.22 401.53c-1.105 0-2-.896-2-2s.895-2 2-2h20.999c1.106 0 2.001.896 2.001 2s-.895 2-2.001 2z" fill="url(#c)"/><path d="m607.22 391.905c-1.105 0-2.001-.896-2.001-2s.896-2 2.001-2h18c1.104 0 2 .896 2 2s-.896 2-2 2z" fill="url(#d)"/><path d="m607.22 382.28c-1.105 0-2.001-.895-2.001-1.999 0-1.105.896-2 2.001-2h12c1.104 0 2 .895 2 2 0 1.104-.896 1.999-2 1.999z" fill="url(#e)"/><path d="m608.719 372.656c-1.104 0-1.999-.896-1.999-2.001 0-1.104.895-2 1.999-2h1c1.106 0 2.001.896 2.001 2 0 1.105-.895 2.001-2.001 2.001z" fill="url(#f)"/></g></svg>